HIERARCHY
ROOT Hips
{
	OFFSET 0.058547 100.481255 -0.522458
	CHANNELS 6 Xposition Yposition Zposition Xrotation Yrotation Zrotation 
	JOINT Spine
	{
		OFFSET -0.279214 12.230705 -2.892139
		CHANNELS 3 Xrotation Yrotation Zrotation
		JOINT Spine1
		{
			OFFSET -0.232678 10.192256 -1.242257
			CHANNELS 3 Xrotation Yrotation Zrotation
			JOINT Spine1_split
			{
				OFFSET -0.232678 10.192256 -1.242257
				CHANNELS 3 Xrotation Yrotation Zrotation
				JOINT Spine2
				{
					OFFSET -0.232678 10.192256 -1.242257
					CHANNELS 3 Xrotation Yrotation Zrotation
					JOINT Neck
					{
						OFFSET -0.418821 17.814224 8.416937
						CHANNELS 3 Xrotation Yrotation Zrotation
						JOINT Head
						{
							OFFSET 0.000000 7.031097 3.806764
							CHANNELS 3 Xrotation Yrotation Zrotation
							JOINT HeadTop_End
							{
								OFFSET 0.000000 24.646591 12.978601
								CHANNELS 3 Xrotation Yrotation Zrotation
								End Site
								{
									OFFSET 0.000000 0.000000 0.000000
								}
							}
						}
					}
					JOINT LeftShoulder
					{
						OFFSET 8.476512 7.247673 -3.868757
						CHANNELS 3 Xrotation Yrotation Zrotation
						JOINT LeftShoulder_split
						{
							OFFSET 8.476512 7.247673 -3.868757
							CHANNELS 3 Xrotation Yrotation Zrotation
							JOINT LeftArm
							{
								OFFSET 9.308996 -2.777740 0.208551
								CHANNELS 3 Xrotation Yrotation Zrotation
								JOINT LeftForeArm
								{
									OFFSET 29.972336 0.000015 0.000022
									CHANNELS 3 Xrotation Yrotation Zrotation
									JOINT LeftHand
									{
										OFFSET 26.026470 0.000015 0.000033
										CHANNELS 3 Xrotation Yrotation Zrotation
										JOINT LeftHandThumb1
										{
											OFFSET 12.240555 -7.117950 9.230400
											CHANNELS 3 Xrotation Yrotation Zrotation
											JOINT LeftHandThumb2
											{
												OFFSET 4.138626 -2.389450 2.389374
												CHANNELS 3 Xrotation Yrotation Zrotation
												JOINT LeftHandThumb3
												{
													OFFSET 2.726952 -1.574417 1.574393
													CHANNELS 3 Xrotation Yrotation Zrotation
													JOINT LeftHandThumb4
													{
														OFFSET 3.940979 -2.275375 2.275301
														CHANNELS 3 Xrotation Yrotation Zrotation
														End Site
														{
															OFFSET 0.000000 0.000000 0.000000
														}
													}
												}
											}
										}
										JOINT LeftHandIndex1
										{
											OFFSET 24.424660 -1.966187 5.959913
											CHANNELS 3 Xrotation Yrotation Zrotation
											JOINT LeftHandIndex2
											{
												OFFSET 6.426682 0.000015 0.000035
												CHANNELS 3 Xrotation Yrotation Zrotation
												JOINT LeftHandIndex3
												{
													OFFSET 5.337883 -0.000031 0.000035
													CHANNELS 3 Xrotation Yrotation Zrotation
													JOINT LeftHandIndex4
													{
														OFFSET 4.409393 -0.000015 0.000044
														CHANNELS 3 Xrotation Yrotation Zrotation
														End Site
														{
															OFFSET 0.000000 0.000000 0.000000
														}
													}
												}
											}
										}
										JOINT LeftHandMiddle1
										{
											OFFSET 23.810127 0.000000 0.000041
											CHANNELS 3 Xrotation Yrotation Zrotation
											JOINT LeftHandMiddle2
											{
												OFFSET 7.176491 -0.000015 0.000051
												CHANNELS 3 Xrotation Yrotation Zrotation
												JOINT LeftHandMiddle3
												{
													OFFSET 6.774864 -0.000015 0.000032
													CHANNELS 3 Xrotation Yrotation Zrotation
													JOINT LeftHandMiddle4
													{
														OFFSET 5.402740 -0.027710 -0.077597
														CHANNELS 3 Xrotation Yrotation Zrotation
														End Site
														{
															OFFSET 0.000000 0.000000 0.000000
														}
													}
												}
											}
										}
										JOINT LeftHandRing1
										{
											OFFSET 22.908371 -0.858917 -6.017762
											CHANNELS 3 Xrotation Yrotation Zrotation
											JOINT LeftHandRing2
											{
												OFFSET 6.337524 0.000000 -0.000050
												CHANNELS 3 Xrotation Yrotation Zrotation
												JOINT LeftHandRing3
												{
													OFFSET 5.779289 0.000000 -0.000029
													CHANNELS 3 Xrotation Yrotation Zrotation
													JOINT LeftHandRing4
													{
														OFFSET 4.965714 0.000031 -0.000057
														CHANNELS 3 Xrotation Yrotation Zrotation
														End Site
														{
															OFFSET 0.000000 0.000000 0.000000
														}
													}
												}
											}
										}
										JOINT LeftHandPinky1
										{
											OFFSET 20.036995 -1.565994 -10.945109
											CHANNELS 3 Xrotation Yrotation Zrotation
											JOINT LeftHandPinky2
											{
												OFFSET 5.254700 -0.000015 0.000002
												CHANNELS 3 Xrotation Yrotation Zrotation
												JOINT LeftHandPinky3
												{
													OFFSET 4.810226 -0.000015 -0.000019
													CHANNELS 3 Xrotation Yrotation Zrotation
													JOINT LeftHandPinky4
													{
														OFFSET 3.647247 0.000015 -0.000044
														CHANNELS 3 Xrotation Yrotation Zrotation
														End Site
														{
															OFFSET 0.000000 0.000000 0.000000
														}
													}
												}
											}
										}
									}
								}
							}
						}
					}
					JOINT RightShoulder
					{
						OFFSET -7.570480 7.247673 -3.868757
						CHANNELS 3 Xrotation Yrotation Zrotation
						JOINT RightShoulder_split
						{
							OFFSET -7.570480 7.247673 -3.868757
							CHANNELS 3 Xrotation Yrotation Zrotation
							JOINT RightArm
							{
								OFFSET -9.309000 -2.777725 0.208549
								CHANNELS 3 Xrotation Yrotation Zrotation
								JOINT RightForeArm
								{
									OFFSET -29.972336 0.000061 -0.000048
									CHANNELS 3 Xrotation Yrotation Zrotation
									JOINT RightHand
									{
										OFFSET -26.026474 0.000092 0.000017
										CHANNELS 3 Xrotation Yrotation Zrotation
										JOINT RightHandThumb1
										{
											OFFSET -12.240570 -7.117905 9.230402
											CHANNELS 3 Xrotation Yrotation Zrotation
											JOINT RightHandThumb2
											{
												OFFSET -4.138580 -2.389465 2.389442
												CHANNELS 3 Xrotation Yrotation Zrotation
												JOINT RightHandThumb3
												{
													OFFSET -2.726990 -1.574402 1.574351
													CHANNELS 3 Xrotation Yrotation Zrotation
													JOINT RightHandThumb4
													{
														OFFSET -3.940971 -2.275345 2.275330
														CHANNELS 3 Xrotation Yrotation Zrotation
														End Site
														{
															OFFSET 0.000000 0.000000 0.000000
														}
													}
												}
											}
										}
										JOINT RightHandIndex1
										{
											OFFSET -24.424667 -1.966171 5.959853
											CHANNELS 3 Xrotation Yrotation Zrotation
											JOINT RightHandIndex2
											{
												OFFSET -6.426682 -0.000046 0.000010
												CHANNELS 3 Xrotation Yrotation Zrotation
												JOINT RightHandIndex3
												{
													OFFSET -5.337891 0.000015 0.000031
													CHANNELS 3 Xrotation Yrotation Zrotation
													JOINT RightHandIndex4
													{
														OFFSET -4.409386 0.000015 0.000044
														CHANNELS 3 Xrotation Yrotation Zrotation
														End Site
														{
															OFFSET 0.000000 0.000000 0.000000
														}
													}
												}
											}
										}
										JOINT RightHandMiddle1
										{
											OFFSET -23.810127 -0.000015 -0.000027
											CHANNELS 3 Xrotation Yrotation Zrotation
											JOINT RightHandMiddle2
											{
												OFFSET -7.176491 -0.000046 -0.000001
												CHANNELS 3 Xrotation Yrotation Zrotation
												JOINT RightHandMiddle3
												{
													OFFSET -6.774857 -0.000046 0.000038
													CHANNELS 3 Xrotation Yrotation Zrotation
													JOINT RightHandMiddle4
													{
														OFFSET -5.402740 -0.027740 -0.077594
														CHANNELS 3 Xrotation Yrotation Zrotation
														End Site
														{
															OFFSET 0.000000 0.000000 0.000000
														}
													}
												}
											}
										}
										JOINT RightHandRing1
										{
											OFFSET -22.908348 -0.858963 -6.017824
											CHANNELS 3 Xrotation Yrotation Zrotation
											JOINT RightHandRing2
											{
												OFFSET -6.337524 0.000046 -0.000019
												CHANNELS 3 Xrotation Yrotation Zrotation
												JOINT RightHandRing3
												{
													OFFSET -5.779289 0.000046 -0.000004
													CHANNELS 3 Xrotation Yrotation Zrotation
													JOINT RightHandRing4
													{
														OFFSET -4.965721 -0.000031 -0.000032
														CHANNELS 3 Xrotation Yrotation Zrotation
														End Site
														{
															OFFSET 0.000000 0.000000 0.000000
														}
													}
												}
											}
										}
										JOINT RightHandPinky1
										{
											OFFSET -20.036957 -1.566071 -10.945158
											CHANNELS 3 Xrotation Yrotation Zrotation
											JOINT RightHandPinky2
											{
												OFFSET -5.254700 0.000031 -0.000025
												CHANNELS 3 Xrotation Yrotation Zrotation
												JOINT RightHandPinky3
												{
													OFFSET -4.810226 -0.000015 -0.000048
													CHANNELS 3 Xrotation Yrotation Zrotation
													JOINT RightHandPinky4
													{
														OFFSET -3.647247 -0.000031 -0.000029
														CHANNELS 3 Xrotation Yrotation Zrotation
														End Site
														{
															OFFSET 0.000000 0.000000 0.000000
														}
													}
												}
											}
										}
									}
								}
							}
						}
					}
				}
			}
		}
	}
	JOINT LeftUpLeg
	{
		OFFSET 15.427091 -6.655090 0.678631
		CHANNELS 3 Xrotation Yrotation Zrotation
		JOINT LeftLeg
		{
			OFFSET 4.088469 -39.590321 13.023970
			CHANNELS 3 Xrotation Yrotation Zrotation
			JOINT LeftFoot
			{
				OFFSET -4.073973 -37.708702 -15.979749
				CHANNELS 3 Xrotation Yrotation Zrotation
				JOINT LeftToeBase
				{
					OFFSET 5.346369 -15.068922 20.645004
					CHANNELS 3 Xrotation Yrotation Zrotation
					JOINT LeftToe_End
					{
						OFFSET 2.754658 0.931270 11.300900
						CHANNELS 3 Xrotation Yrotation Zrotation
						End Site
						{
							OFFSET 0.000000 0.000000 0.000000
						}
					}
				}
			}
		}
	}
	JOINT RightUpLeg
	{
		OFFSET -15.569522 -6.655090 0.678631
		CHANNELS 3 Xrotation Yrotation Zrotation
		JOINT RightLeg
		{
			OFFSET -4.074467 -39.591820 13.023795
			CHANNELS 3 Xrotation Yrotation Zrotation
			JOINT RightFoot
			{
				OFFSET 4.088761 -37.707176 -15.979579
				CHANNELS 3 Xrotation Yrotation Zrotation
				JOINT RightToeBase
				{
					OFFSET -5.346370 -15.068919 20.645004
					CHANNELS 3 Xrotation Yrotation Zrotation
					JOINT RightToe_End
					{
						OFFSET -2.754656 0.931271 11.300900
						CHANNELS 3 Xrotation Yrotation Zrotation
						End Site
						{
							OFFSET 0.000000 0.000000 0.000000
						}
					}
				}
			}
		}
	}
}
MOTION
Frames: 5
Frame Time: 0.016667
0.591890 114.743546 -5.616954 89.451566 1.005731 4.213484 -1.164828 0.659223 -0.562083 -2.316034 1.317258 -1.535885 0.000000 0.000000 0.000000 -2.316053 1.317257 -1.535886 -9.789807 1.583974 -0.348993 2.502140 5.858926 -13.077557 -0.000000 -0.000001 0.000000 0.301161 -2.573214 -7.759611 0.000000 0.000000 0.000000 5.323428 18.969192 -23.535471 -11.597171 -135.484056 -0.906016 45.796323 7.583434 46.595008 -38.279348 -1.243784 -33.928230 1.852024 3.510442 6.587697 -0.000502 -0.000619 0.000250 0.000001 -0.000003 -0.000003 2.029942 4.639762 -56.335059 -7.651350 3.468299 -42.869191 0.000000 0.000000 -0.000002 0.000000 0.000000 0.000002 -0.209493 5.738145 -58.579063 -4.751996 1.287924 -40.225696 0.002107 -0.822893 0.293750 -0.000001 -0.000000 -0.000000 -0.266325 11.125581 -52.060245 -0.441596 -0.558960 -62.473555 0.000001 -0.001152 0.000001 0.000000 0.000001 0.000000 1.894379 5.526523 -66.679674 1.273853 -6.729994 -37.586592 -0.000001 0.000000 -0.000002 -0.000001 0.000000 -0.000002 0.363584 1.823640 6.234495 0.000000 0.000000 0.000000 -10.487493 -31.902482 17.940484 -0.030990 139.696138 -0.046704 45.907388 -8.660286 -34.691538 -15.414038 3.941413 -18.169044 4.846374 -12.350748 -1.009490 -0.000499 -0.000087 -0.000969 0.000000 0.000000 -0.000000 -9.808906 -1.294186 26.468998 -7.671213 -0.396372 49.977129 0.000000 -0.000000 -0.000000 0.000001 -0.000001 0.000000 -3.347811 -2.945461 14.949121 -5.623826 -2.101687 60.130247 0.002110 0.822895 -0.293761 -0.000000 -0.000000 0.000000 -3.008743 -8.566468 10.724594 -2.422096 8.288708 77.630591 -0.000003 0.000000 0.000001 -0.000000 0.000001 0.000001 3.420622 -5.463015 22.496504 -0.891375 10.797344 54.490416 -0.000002 -0.000004 -0.000001 -0.000001 0.000000 -0.000000 -13.049853 1.759299 9.924157 18.818790 -0.575342 -0.843411 18.984268 -0.374478 -16.873311 -5.689264 -0.035727 0.075045 0.000002 0.000000 0.000000 -26.156235 -54.682433 -29.650708 13.768154 0.337827 0.581247 12.763259 40.234203 21.505933 2.666032 -0.203829 0.459008 -0.000000 0.000000 -0.000002 
0.593216 114.753433 -5.624188 89.442816 0.998306 4.223243 -1.161920 0.667279 -0.558041 -2.310153 1.333088 -1.525447 0.000000 0.000000 0.000000 -2.310151 1.333087 -1.525446 -9.900971 1.586345 -0.318188 2.520825 5.884363 -13.149397 0.000000 -0.000001 0.000001 0.299685 -2.565764 -7.773009 0.000000 0.000000 0.000000 5.288726 18.895039 -23.552253 -11.583126 -135.407462 -0.902676 45.795548 7.553696 46.599956 -38.311760 -1.278604 -33.965250 1.864178 3.539794 6.580049 -0.000501 -0.000616 0.000248 -0.000000 -0.000002 0.000000 2.037406 4.655007 -56.257014 -7.644957 3.462285 -42.740674 -0.000000 0.000001 -0.000000 -0.000000 0.000001 0.000002 -0.189775 5.748529 -58.561980 -4.747421 1.288528 -40.134287 0.002108 -0.822893 0.293752 -0.000000 -0.000001 0.000001 -0.364784 11.141779 -51.927944 -0.443866 -0.554864 -62.419193 0.000000 -0.001150 0.000002 0.000000 0.000000 0.000003 1.833219 5.509797 -66.717254 1.272159 -6.725096 -37.539864 0.000003 -0.000000 -0.000002 0.000003 -0.000000 -0.000002 0.364484 1.899047 6.253050 0.000000 0.000000 0.000000 -10.642518 -32.030316 18.091122 -0.031195 139.803413 -0.046350 46.028986 -8.605417 -34.533054 -15.528613 4.155311 -18.053076 4.828267 -12.311779 -1.017461 -0.000499 -0.000088 -0.000969 -0.000001 -0.000000 0.000000 -10.006869 -0.992869 27.864812 -7.606794 -0.403469 50.964413 0.000001 -0.000000 0.000000 0.000000 -0.000000 0.000001 -3.538379 -2.679711 17.722285 -5.752956 -2.031275 62.385616 0.002110 0.822895 -0.293760 0.000000 0.000000 0.000000 -3.082214 -8.551917 12.649268 -2.425172 8.290864 77.664066 -0.000000 -0.000000 -0.000000 -0.000001 0.000001 0.000002 3.514982 -5.634898 22.923956 -0.815336 10.726785 53.820887 -0.000002 -0.000005 -0.000002 0.000002 -0.000000 -0.000000 -13.025213 1.796824 9.930456 18.734811 -0.593912 -0.840919 19.034837 -0.429010 -17.108902 -5.684467 -0.035724 0.075042 0.000001 -0.000001 0.000000 -26.039152 -54.523440 -29.522308 13.758545 0.343999 0.581454 12.630359 40.108910 21.661006 2.652803 -0.203732 0.458987 -0.000000 0.000000 -0.000001 
0.592506 114.766747 -5.629989 89.428630 0.999836 4.235422 -1.157750 0.673193 -0.554318 -2.301897 1.344655 -1.517199 0.000000 0.000000 0.000000 -2.301875 1.344653 -1.517198 -10.017173 1.590681 -0.290128 2.538479 5.913941 -13.218381 0.000002 -0.000000 0.000001 0.300355 -2.517160 -7.770286 0.000000 0.000000 0.000000 5.244151 18.738346 -23.659265 -11.610828 -135.300570 -0.911584 45.839377 7.439475 46.567137 -38.334372 -1.300557 -33.993141 1.875019 3.565927 6.573237 -0.000500 -0.000616 0.000249 0.000002 0.000002 0.000001 2.043127 4.667972 -56.188787 -7.639109 3.456743 -42.622194 0.000000 -0.000000 -0.000001 0.000001 0.000000 0.000002 -0.164447 5.761164 -58.536333 -4.742809 1.289131 -40.042551 0.002108 -0.822893 0.293755 -0.000000 0.000001 0.000001 -0.475186 11.158129 -51.790603 -0.446143 -0.550764 -62.364866 0.000001 -0.001151 0.000003 -0.000001 -0.000000 0.000001 1.781388 5.493043 -66.774655 1.270592 -6.720440 -37.495785 0.000002 -0.000000 -0.000000 0.000002 -0.000000 0.000001 0.364656 1.983890 6.282234 0.000000 0.000000 0.000000 -10.828607 -32.169457 18.275010 -0.031409 139.908967 -0.045872 46.173991 -8.519535 -34.354608 -15.650827 4.380124 -17.928367 4.807108 -12.266274 -1.026857 -0.000499 -0.000087 -0.000969 -0.000001 -0.000000 -0.000000 -10.226930 -0.663293 29.361819 -7.533854 -0.408305 51.987725 -0.000000 0.000000 0.000001 -0.000000 -0.000000 0.000001 -3.751493 -2.396890 20.656111 -5.893797 -1.961531 64.794173 0.002111 0.822896 -0.293761 -0.000001 0.000000 0.000001 -3.166491 -8.532037 14.676354 -2.427977 8.292783 77.694488 -0.000001 -0.000000 -0.000002 -0.000001 0.000000 -0.000001 3.611531 -5.805905 23.337360 -0.735472 10.652274 53.122186 -0.000002 -0.000004 -0.000001 -0.000000 0.000000 0.000000 -13.003464 1.817866 9.931671 18.659851 -0.610792 -0.838584 19.078006 -0.484835 -17.315723 -5.691374 -0.035740 0.075051 -0.000000 0.000000 0.000000 -25.908893 -54.351695 -29.387039 13.747544 0.350619 0.581718 12.489216 39.962218 21.823284 2.641703 -0.203668 0.458982 0.000001 0.000000 -0.000001 
0.586537 114.789246 -5.631990 89.398850 1.022212 4.253217 -1.149147 0.674983 -0.551280 -2.284591 1.347991 -1.513990 0.000000 0.000000 0.000000 -2.284570 1.347989 -1.513991 -10.150568 1.599589 -0.263856 2.547895 5.959471 -13.282924 -0.000000 0.000001 -0.000000 0.300464 -2.491777 -7.774169 0.000000 0.000000 0.000000 5.191767 18.599305 -23.725692 -11.613085 -135.177230 -0.910326 45.872824 7.357473 46.584865 -38.335680 -1.301469 -33.994282 1.885026 3.590061 6.566931 -0.000502 -0.000616 0.000249 -0.000000 0.000002 -0.000003 2.044804 4.673989 -56.158867 -7.634605 3.452352 -42.526438 -0.000000 0.000000 -0.000001 0.000000 0.000001 -0.000001 -0.120468 5.779671 -58.500352 -4.737870 1.289770 -39.944083 0.002108 -0.822893 0.293753 -0.000000 -0.000000 0.000000 -0.612604 11.174655 -51.647514 -0.448589 -0.546379 -62.306529 0.000001 -0.001150 0.000003 -0.000001 -0.000000 -0.000001 1.751259 5.475157 -66.887728 1.269492 -6.717137 -37.464455 0.000001 0.000000 -0.000001 0.000001 0.000000 -0.000002 0.363549 2.096200 6.336764 0.000000 0.000000 0.000000 -11.090045 -32.352543 18.534886 -0.031735 140.020545 -0.045180 46.378777 -8.365100 -34.144611 -15.800244 4.649031 -17.774917 4.773776 -12.194798 -1.041899 -0.000499 -0.000088 -0.000969 -0.000000 0.000001 0.000000 -10.503232 -0.280346 31.006122 -7.439100 -0.402652 52.913872 0.000000 -0.000001 -0.000001 -0.000000 -0.000000 -0.000001 -4.018609 -2.076734 23.749490 -6.045146 -1.894090 67.328720 0.002110 0.822895 -0.293761 -0.000000 0.000000 -0.000002 -3.287038 -8.493950 16.781537 -2.428210 8.292963 77.697097 -0.000000 0.000000 -0.000000 0.000002 0.000001 -0.000000 3.699828 -5.951085 23.729761 -0.651612 10.570009 52.365776 -0.000000 -0.000004 -0.000002 0.000001 -0.000000 0.000000 -12.988820 1.802371 9.920620 18.609052 -0.623556 -0.836693 19.108455 -0.532758 -17.445577 -5.714090 -0.035785 0.075100 -0.000002 0.000001 0.000000 -25.743710 -54.150204 -29.233657 13.733232 0.358409 0.582437 12.327573 39.769405 22.002841 2.633897 -0.203598 0.458960 -0.000000 0.000001 0.000001 
0.576790 114.817146 -5.631428 89.361810 1.065522 4.276964 -1.141145 0.670027 -0.549243 -2.268588 1.337919 -1.516007 0.000000 0.000000 0.000000 -2.268582 1.337921 -1.516007 -10.285108 1.613410 -0.253261 2.566075 6.002261 -13.336242 -0.000001 0.000000 -0.000000 0.300151 -2.469908 -7.780730 0.000000 0.000000 0.000000 5.135344 18.464996 -23.791688 -11.610232 -135.038113 -0.903360 45.911794 7.265831 46.613753 -38.310661 -1.254528 -33.984819 1.887402 3.595753 6.565422 -0.000500 -0.000620 0.000250 -0.000000 -0.000000 0.000000 2.042174 4.677975 -56.121103 -7.631527 3.449161 -42.455271 -0.000000 0.000000 -0.000001 -0.000000 -0.000001 0.000001 -0.074524 5.802092 -58.424687 -4.733492 1.290335 -39.856736 0.002108 -0.822893 0.293751 -0.000001 -0.000000 0.000003 -0.779330 11.192309 -51.480696 -0.450673 -0.542609 -62.256560 0.000002 -0.001150 0.000002 -0.000001 -0.000000 -0.000000 1.743133 5.459342 -67.027843 1.268144 -6.713129 -37.426363 0.000000 0.000000 -0.000001 0.000000 0.000000 0.000000 0.360026 2.219716 6.414934 0.000000 0.000000 0.000000 -11.418233 -32.526720 18.875650 -0.031957 140.108080 -0.044452 46.627325 -8.130690 -33.858262 -15.947173 4.906277 -17.617775 4.743320 -12.129309 -1.055612 -0.000498 -0.000087 -0.000969 0.000001 -0.000001 -0.000000 -10.792261 0.115977 32.720001 -7.340857 -0.397043 53.890169 0.000001 -0.000001 0.000000 0.000000 -0.000001 -0.000000 -4.298235 -1.754927 26.935339 -6.206032 -1.830821 69.973902 0.002111 0.822895 -0.293761 0.000001 -0.000000 0.000000 -3.427767 -8.445755 18.942319 -2.431602 8.295314 77.733953 0.000001 0.000000 0.000000 0.000000 0.000001 0.000002 3.778484 -6.076797 24.047595 -0.568007 10.495188 51.675142 -0.000001 -0.000004 -0.000002 -0.000001 -0.000000 0.000000 -12.979379 1.744456 9.898966 18.571860 -0.634184 -0.835160 19.112775 -0.601923 -17.529091 -5.786579 -0.035927 0.075248 0.000001 0.000000 0.000000 -25.554171 -53.918582 -29.067639 13.716847 0.367349 0.583538 12.148065 39.519092 22.199153 2.633681 -0.203608 0.459030 0.000000 0.000000 -0.000001 
